<svg width="51" height="50" viewBox="0 0 51 50" fill="none" xmlns="http://www.w3.org/2000/svg">
<rect width="50" height="50" rx="10" fill="#F7F7EB"/>
<path d="M9.92145 33H14.2335V26.928H18.8095V23.65H14.2335V20.922H20.4375V17.49H9.92145V33ZM21.7255 25.212C21.7255 29.854 24.7835 33.11 29.4475 33.11C33.3415 33.11 36.1135 30.866 36.8835 27.346H32.2415C31.6915 28.512 30.6575 29.15 29.3815 29.15C27.4015 29.15 26.1035 27.61 26.1035 25.212C26.1035 22.836 27.4015 21.296 29.3815 21.296C30.6575 21.296 31.6915 21.934 32.2415 23.1H36.8835C36.1135 19.58 33.3415 17.336 29.4475 17.336C24.7835 17.336 21.7255 20.592 21.7255 25.212ZM43.5234 30.954C43.5234 29.7 42.5334 28.71 41.0154 28.71C39.4754 28.71 38.4854 29.7 38.4854 30.954C38.4854 32.208 39.4754 33.176 41.0154 33.176C42.5334 33.176 43.5234 32.208 43.5234 30.954Z" fill="#301E70"/>
</svg>
