<svg width="51" height="50" viewBox="0 0 51 50" fill="none" xmlns="http://www.w3.org/2000/svg">
<rect width="50" height="50" rx="10" fill="#301E70"/>
<path d="M20.4375 17.49V20.922H14.2335V23.65H18.8095V26.928H14.2335V33H9.92145V17.49H20.4375ZM21.7255 25.212C21.7255 23.6867 22.0408 22.33 22.6715 21.142C23.3168 19.9393 24.2262 19.008 25.3995 18.348C26.5728 17.6733 27.9222 17.336 29.4475 17.336C31.3835 17.336 33.0115 17.8567 34.3315 18.898C35.6515 19.9247 36.5022 21.3253 36.8835 23.1H32.2415C31.9628 22.5133 31.5742 22.066 31.0755 21.758C30.5915 21.45 30.0268 21.296 29.3815 21.296C28.3842 21.296 27.5848 21.6553 26.9835 22.374C26.3968 23.078 26.1035 24.024 26.1035 25.212C26.1035 26.4147 26.3968 27.3753 26.9835 28.094C27.5848 28.798 28.3842 29.15 29.3815 29.15C30.0268 29.15 30.5915 28.996 31.0755 28.688C31.5742 28.38 31.9628 27.9327 32.2415 27.346H36.8835C36.5022 29.1207 35.6515 30.5287 34.3315 31.57C33.0115 32.5967 31.3835 33.11 29.4475 33.11C27.9222 33.11 26.5728 32.78 25.3995 32.12C24.2262 31.4453 23.3168 30.514 22.6715 29.326C22.0408 28.1233 21.7255 26.752 21.7255 25.212ZM41.0154 33.176C40.2527 33.176 39.6367 32.9707 39.1674 32.56C38.7127 32.1347 38.4854 31.5993 38.4854 30.954C38.4854 30.3087 38.7127 29.7733 39.1674 29.348C39.6367 28.9227 40.2527 28.71 41.0154 28.71C41.7634 28.71 42.3647 28.9227 42.8194 29.348C43.2887 29.7733 43.5234 30.3087 43.5234 30.954C43.5234 31.5847 43.2887 32.1127 42.8194 32.538C42.3647 32.9633 41.7634 33.176 41.0154 33.176Z" fill="#F7F7EB"/>
</svg>
