<svg width="105" height="19" viewBox="0 0 105 19" fill="none" xmlns="http://www.w3.org/2000/svg">
<path d="M1.64697 18.9414V9.49443H0V6.30443C0.451 6.30443 0.880007 6.29043 1.30701 6.30443C1.57701 6.31643 1.65396 6.21445 1.64996 5.95345C1.63896 5.25345 1.633 4.55344 1.659 3.85344C1.746 1.46644 2.86698 0.231423 5.23798 0.0534225C6.48398 -0.0415775 7.73797 0.0374313 9.02997 0.0374313V3.18544H7.46997C6.13397 3.18544 5.91697 3.40144 5.90997 4.72844C5.90997 5.23744 5.90997 5.74544 5.90997 6.30144H8.82098L8.47797 9.47243H5.90399V18.9454L1.64697 18.9414Z" fill="#301E70"/>
<path d="M50.5209 0.00444031H51.9649C52.9507 0.191831 53.8597 0.664753 54.5789 1.36444C54.6348 1.39993 54.6979 1.42256 54.7636 1.43069C54.8294 1.43882 54.896 1.43224 54.9589 1.41144C55.5689 1.21144 56.1743 0.997107 56.7749 0.76844C57.0519 0.66244 57.3119 0.512441 57.6609 0.343441C57.3326 1.3597 56.6772 2.23874 55.7969 2.84344L55.8489 2.94344L58.2599 2.25844C57.7402 3.03889 57.0987 3.731 56.3599 4.30844C56.2378 4.39172 56.138 4.50379 56.0695 4.63478C56.0009 4.76576 55.9657 4.91161 55.9669 5.05944C55.9395 6.09588 55.8295 7.12849 55.6379 8.14744C55.3958 9.12639 55.061 10.08 54.6379 10.9954C53.8355 12.8248 52.6045 14.4342 51.0489 15.6874C48.9375 17.3679 46.3692 18.3741 43.6781 18.5753C40.9871 18.7765 38.2978 18.1633 35.9599 16.8154C35.8249 16.7404 35.6969 16.6514 35.5659 16.5694C36.7606 16.6123 37.9554 16.4844 39.1139 16.1894C40.2814 15.8474 41.3748 15.2906 42.3379 14.5474C40.2379 14.3264 37.9539 12.5474 38.1069 11.2714H39.8919C38.8791 10.9707 37.9898 10.3522 37.3554 9.50733C36.7211 8.66245 36.3752 7.63596 36.3689 6.57944C37.0032 6.87646 37.6927 7.03692 38.3929 7.05044C37.4252 6.38444 36.7498 5.3726 36.5059 4.22344C36.2477 3.08087 36.4442 1.88264 37.0539 0.882439C38.2335 2.31045 39.6947 3.48 41.3465 4.31808C42.9982 5.15616 44.8049 5.64478 46.6539 5.75344C46.6536 5.59545 46.6453 5.43758 46.6289 5.28044C46.5158 4.59718 46.5681 3.89676 46.7814 3.23787C46.9947 2.57897 47.3629 1.98079 47.8549 1.49344C48.5649 0.729148 49.4978 0.208127 50.5209 0.00444031V0.00444031Z" fill="#301E70"/>
<path d="M88.9819 7.64645C88.9759 7.51445 88.9719 7.39744 88.9649 7.28244C88.9539 7.10644 88.9349 6.93145 88.9289 6.75645C88.9129 6.33145 88.8929 5.90645 88.8909 5.48045C88.8863 5.03707 88.9167 4.59402 88.9819 4.15544C89.0627 3.66872 89.2322 3.20097 89.4819 2.77544C89.7417 2.30776 90.0685 1.88058 90.4519 1.50745C90.919 1.05948 91.4662 0.703291 92.0649 0.457443C92.538 0.259294 93.0354 0.124786 93.5439 0.0574412C94.0003 0.00209402 94.4608 -0.0132954 94.9199 0.0114436C95.5122 0.0381245 96.0972 0.1541 96.6549 0.355445C97.4132 0.620868 98.0983 1.06107 98.6549 1.64044C99.1779 2.17954 99.5802 2.82382 99.8349 3.53044C99.9326 3.82684 99.9957 4.13354 100.023 4.44444C100.074 4.92663 100.091 5.41187 100.073 5.89645C100.06 6.32345 100.031 6.75044 100.009 7.17744C100.001 7.32744 99.9939 7.47745 99.9859 7.63245C100.087 7.65863 100.194 7.65233 100.292 7.61444C100.454 7.56947 100.613 7.51402 100.768 7.44844C100.924 7.37752 101.094 7.33877 101.265 7.33447C101.437 7.33018 101.608 7.36044 101.768 7.42345C102.029 7.50785 102.252 7.67994 102.4 7.91045C102.493 8.06523 102.534 8.24541 102.518 8.42509C102.501 8.60477 102.429 8.7747 102.31 8.91045C102.066 9.17181 101.762 9.36985 101.425 9.48744C101.168 9.58744 100.901 9.66744 100.643 9.76644C100.527 9.813 100.416 9.87166 100.312 9.94144C100.227 9.98241 100.161 10.0552 100.128 10.1441C100.096 10.2331 100.1 10.3312 100.139 10.4174C100.224 10.652 100.327 10.8796 100.447 11.0984C100.744 11.6422 101.122 12.1381 101.567 12.5694C102.169 13.1785 102.932 13.6043 103.767 13.7974C103.858 13.8174 103.952 13.8284 104.041 13.8534C104.13 13.878 104.213 13.9216 104.285 13.9812C104.356 14.0408 104.413 14.1151 104.453 14.1988C104.493 14.2826 104.514 14.374 104.516 14.4668C104.517 14.5595 104.498 14.6515 104.461 14.7364C104.359 14.9692 104.184 15.1616 103.961 15.2834C103.66 15.4651 103.333 15.5984 102.991 15.6784C102.625 15.7704 102.254 15.8394 101.884 15.9174C101.863 15.9195 101.844 15.9285 101.829 15.943C101.813 15.9575 101.804 15.9767 101.801 15.9974C101.74 16.2494 101.685 16.5024 101.609 16.7504C101.57 16.8871 101.486 17.0066 101.371 17.0892C101.255 17.1719 101.115 17.2129 100.973 17.2054C100.735 17.189 100.497 17.1599 100.262 17.1184C99.9197 17.0584 99.5719 17.0363 99.2249 17.0524C98.9153 17.0514 98.6089 17.1144 98.3249 17.2374C98.0949 17.3564 97.8729 17.4924 97.6559 17.6374C97.3169 17.8564 96.9909 18.0954 96.6489 18.3074C96.2098 18.5819 95.7196 18.7642 95.2079 18.8434C94.8337 18.8937 94.4553 18.9044 94.0789 18.8754C93.3936 18.8261 92.7333 18.5979 92.1639 18.2134C91.7859 17.9704 91.4219 17.7084 91.0479 17.4594C90.8253 17.2996 90.5731 17.1857 90.3059 17.1244C89.983 17.0613 89.6535 17.0378 89.3249 17.0544C88.9729 17.0724 88.6309 17.1544 88.2839 17.2054C88.1356 17.2303 87.9842 17.2303 87.8359 17.2054C87.7063 17.1782 87.5879 17.1123 87.4965 17.0164C87.4051 16.9206 87.3449 16.7992 87.3239 16.6684C87.2669 16.4504 87.2169 16.2314 87.1689 16.0114C87.1654 15.9884 87.154 15.9674 87.1367 15.9518C87.1194 15.9363 87.0971 15.9273 87.0739 15.9264C86.8349 15.8814 86.5939 15.8414 86.3569 15.7874C85.9279 15.7029 85.5127 15.5596 85.1229 15.3614C84.8852 15.2468 84.6863 15.065 84.5509 14.8384C84.4978 14.7516 84.4656 14.6536 84.4566 14.5522C84.4477 14.4508 84.4624 14.3487 84.4995 14.2539C84.5366 14.1591 84.5951 14.0742 84.6704 14.0057C84.7458 13.9373 84.836 13.8872 84.9339 13.8594C85.1259 13.8104 85.3219 13.7794 85.5119 13.7244C86.0046 13.5786 86.4663 13.3434 86.8739 13.0304C87.5456 12.5185 88.1023 11.8712 88.5079 11.1304C88.6162 10.9407 88.7117 10.7439 88.7939 10.5414C88.831 10.4834 88.8539 10.4174 88.8607 10.3489C88.8675 10.2804 88.858 10.2112 88.8331 10.147C88.8082 10.0828 88.7684 10.0254 88.7171 9.97942C88.6658 9.93345 88.6044 9.90023 88.5379 9.88245C88.2895 9.77059 88.0351 9.67244 87.7759 9.58844C87.429 9.48325 87.105 9.31363 86.8209 9.08844C86.7139 9.00747 86.6252 8.90492 86.5604 8.78742C86.4956 8.66993 86.4563 8.54012 86.4449 8.40644C86.4375 8.25947 86.4678 8.11305 86.5329 7.98108C86.598 7.84911 86.6958 7.73598 86.8169 7.65244C87.0642 7.46003 87.3707 7.35963 87.6839 7.36845C87.8277 7.37243 87.9691 7.4065 88.0989 7.46844C88.3262 7.57508 88.5707 7.64011 88.8209 7.66045C88.8689 7.64945 88.9229 7.64645 88.9819 7.64645Z" fill="#301E70"/>
</svg>
