<svg width="45" height="45" viewBox="0 0 45 45" fill="none" xmlns="http://www.w3.org/2000/svg">
<circle cx="22.31" cy="22.31" r="22.31" fill="#F7F7EB"/>
<path d="M22.0002 13.9855C17.5807 13.9855 13.9854 17.5816 13.9854 22.0011C13.9854 26.4206 17.5807 30.0167 22.0002 30.0167C26.419 30.0167 30.0151 26.4213 30.0151 22.0011C30.0151 17.5809 26.419 13.9855 22.0002 13.9855Z" fill="#2A1E6C"/>
<path d="M22.0001 11.6291C21.1364 11.6291 20.4363 10.929 20.4363 10.0659V7.56387C20.4363 6.70009 21.1364 6 22.0001 6C22.8639 6 23.564 6.70009 23.564 7.56387V10.0659C23.564 10.929 22.8632 11.6291 22.0001 11.6291Z" fill="#2A1E6C"/>
<path d="M22.0001 32.3702C21.1364 32.3702 20.4363 33.0703 20.4363 33.9341V36.4354C20.4363 37.2999 21.1364 38 22.0001 38C22.8639 38 23.564 37.2999 23.564 36.4354V33.9341C23.564 33.0703 22.8632 32.3702 22.0001 32.3702Z" fill="#2A1E6C"/>
<path d="M29.3323 14.6677C28.7222 14.0569 28.7222 13.067 29.3323 12.4562L31.1017 10.6868C31.7118 10.0767 32.7024 10.0767 33.3132 10.6868C33.924 11.2976 33.924 12.2882 33.3132 12.8983L31.5438 14.6677C30.9337 15.2785 29.9438 15.2785 29.3323 14.6677Z" fill="#2A1E6C"/>
<path d="M14.6667 29.333C14.0559 28.7215 13.066 28.7215 12.4552 29.333L10.6859 31.1017C10.0758 31.7118 10.0751 32.7031 10.6859 33.3132C11.2967 33.9233 12.2873 33.9233 12.8974 33.3132L14.6667 31.5431C15.2775 30.933 15.2775 29.9424 14.6667 29.333Z" fill="#2A1E6C"/>
<path d="M32.3704 21.9988C32.3704 21.135 33.0704 20.4349 33.9342 20.4349H36.4363C37.3 20.4349 38.0001 21.135 38.0001 21.9988C38.0001 22.8626 37.3 23.562 36.4363 23.562H33.9342C33.0704 23.562 32.3704 22.8626 32.3704 21.9988Z" fill="#2A1E6C"/>
<path d="M11.629 21.9988C11.629 21.135 10.929 20.4349 10.0652 20.4349H7.56386C6.70009 20.4349 6 21.135 6 21.9988C6 22.8626 6.70009 23.562 7.56386 23.562H10.0659C10.929 23.562 11.629 22.8626 11.629 21.9988Z" fill="#2A1E6C"/>
<path d="M29.3324 29.3345C29.9432 28.7244 30.9338 28.7244 31.5439 29.3345L33.3132 31.1039C33.924 31.7133 33.924 32.7046 33.3132 33.3147C32.7024 33.9248 31.7125 33.9248 31.1017 33.3147L29.3324 31.5453C28.7216 30.9345 28.7216 29.9446 29.3324 29.3345Z" fill="#2A1E6C"/>
<path d="M14.6667 14.6676C15.2776 14.0568 15.2776 13.0669 14.6667 12.4561L12.8974 10.6875C12.2866 10.0767 11.2967 10.0767 10.6859 10.6875C10.0751 11.2976 10.0751 12.2882 10.6859 12.8983L12.4552 14.6676C13.066 15.2792 14.0559 15.2792 14.6667 14.6676Z" fill="#2A1E6C"/>
</svg>
