<svg width="56" height="56" viewBox="0 0 56 56" fill="none" xmlns="http://www.w3.org/2000/svg">
<path d="M34.6145 49.2476C46.3746 45.5691 52.9261 33.0537 49.2476 21.2935C45.5692 9.53341 33.0537 2.98192 21.2936 6.66037C9.53347 10.3388 2.98198 22.8543 6.66043 34.6144C10.3389 46.3745 22.8543 52.926 34.6145 49.2476Z" fill="#301E70"/>
<path d="M24.4734 29.29C22.6045 23.315 26.2813 16.8472 32.6859 14.844C33.1438 14.7007 33.6033 14.5851 34.0624 14.4943C30.7803 12.9897 26.9521 12.6462 23.2349 13.8089C15.252 16.3059 10.8047 24.8015 13.3017 32.7844C15.7987 40.7673 24.2943 45.2146 32.2772 42.7176C35.9945 41.5549 38.9445 39.0911 40.7843 35.9845C40.3553 36.1715 39.9118 36.3383 39.4539 36.4816C33.0494 38.4848 26.3423 35.2651 24.4734 29.29Z" fill="white"/>
</svg>
